<svg id="Layer_1" data-name="Layer 1" xmlns="http://www.w3.org/2000/svg" viewBox="0 0 1317.85 619"><defs><style>.cls-1{fill:#0a2b4f;}.cls-2{fill:#184793;}.cls-3{fill:#186ce8;}.cls-4{fill:#27d6ff;}.cls-5{fill:none;stroke:#0c21bc;stroke-miterlimit:10;stroke-width:3px;}</style></defs><title>logo</title><ellipse class="cls-1" cx="240.28" cy="394.5" rx="44.59" ry="90.5"/><ellipse class="cls-1" cx="255.23" cy="155.5" rx="129.54" ry="155.5"/><ellipse class="cls-1" cx="332.14" cy="155.5" rx="129.54" ry="155.5"/><path class="cls-1" d="M183,280s46,193,48,273h29s-14.28-223.21,39.86-267.1C226,269,183,280,183,280Z"/><path class="cls-1" d="M201,598.73s29-32.78,30-48.73c27,2.66,29,0,29,0s12,44.3,24,50.5C233,602.28,201,598.73,201,598.73Z"/><polygon class="cls-1" points="196.97 606 192.97 616 290.97 618 287.97 608 196.97 606"/><ellipse class="cls-1" cx="350.24" cy="389.5" rx="44.59" ry="90.5"/><path class="cls-1" d="M406.83,280s-46,193-48,273h-29S344.11,329.79,290,285.9C363.83,269,406.83,280,406.83,280Z"/><path class="cls-1" d="M388.83,599.73s-29-32.78-30-48.73c-27,2.66-29,0-29,0s-12,44.3-24,50.5C356.83,603.28,388.83,599.73,388.83,599.73Z"/><polygon class="cls-1" points="395.83 607 399.83 619 301.83 618 304.83 609 395.83 607"/><path class="cls-2" d="M744.58,459h35.8v8.2h-13.1v34.64h-9.67V467.23h-13Z"/><path class="cls-2" d="M824.13,501.87l-6.79-12.24h-9.85v12.24h-9.67V459h18.6q8.38,0,13,3.89t4.59,11a16.56,16.56,0,0,1-2.05,8.48,13.17,13.17,0,0,1-6,5.35l9.12,14.14Zm-16.64-20.32h8.93a9.25,9.25,0,0,0,6.21-1.87,6.83,6.83,0,0,0,2.17-5.48,6.57,6.57,0,0,0-2.17-5.35,9.48,9.48,0,0,0-6.21-1.81h-8.93Z"/><path class="cls-2" d="M886,501.87l-3.37-8.32H862.81l-3.37,8.32h-10L868.07,459h10l18.3,42.84Zm-20-16.09h13.52l-6.73-16.64Z"/><path class="cls-2" d="M942.67,459h9.18v42.84H943l-20.74-27.54v27.54H913V459h8.81l20.81,27.66Z"/><path class="cls-2" d="M994.71,467.75a21.23,21.23,0,0,0-6.33-1.19,7.46,7.46,0,0,0-4,.92,3,3,0,0,0-1.47,2.69,3.77,3.77,0,0,0,2.11,3.46,32.62,32.62,0,0,0,6.52,2.48,56.29,56.29,0,0,1,7.25,2.57,12.86,12.86,0,0,1,4.86,3.86,10.69,10.69,0,0,1,2,6.79,11.64,11.64,0,0,1-2.17,7.07,13.39,13.39,0,0,1-6,4.5,22.93,22.93,0,0,1-8.63,1.53,29.52,29.52,0,0,1-10.22-1.84,27.58,27.58,0,0,1-8.69-5l3.86-7.89a26,26,0,0,0,7.47,4.71,20.08,20.08,0,0,0,7.71,1.78,8.5,8.5,0,0,0,4.68-1.1,3.85,3.85,0,0,0,.55-5.91,8.69,8.69,0,0,0-2.88-1.74q-1.75-.67-4.8-1.53a54.53,54.53,0,0,1-7.19-2.45,12.64,12.64,0,0,1-4.8-3.73,10.32,10.32,0,0,1-2-6.67,11.32,11.32,0,0,1,2.08-6.76,13.2,13.2,0,0,1,5.81-4.47,22.4,22.4,0,0,1,8.69-1.56,30.09,30.09,0,0,1,8.69,1.29,29.43,29.43,0,0,1,7.59,3.43l-3.73,8A32.53,32.53,0,0,0,994.71,467.75Z"/><path class="cls-2" d="M1055.57,462.92q4.47,3.89,4.47,11,0,7.47-4.5,11.6t-12.64,4.13h-8.51v12.24h-9.67V459h18.18Q1051.1,459,1055.57,462.92Zm-6.88,16.77a6.82,6.82,0,0,0,2.17-5.48,6.57,6.57,0,0,0-2.17-5.35,9.58,9.58,0,0,0-6.27-1.81h-8v14.5h8A9.35,9.35,0,0,0,1048.69,479.68Z"/><path class="cls-2" d="M1110.09,461.23a21.88,21.88,0,0,1,0,38.4,24.95,24.95,0,0,1-23.38,0,21.57,21.57,0,0,1-11.32-19.25,21.53,21.53,0,0,1,11.29-19.15,25.25,25.25,0,0,1,23.41,0Zm-18.18,7.37a13.18,13.18,0,0,0-4.83,4.93,13.89,13.89,0,0,0,4.87,18.73,12.46,12.46,0,0,0,6.58,1.84,12.3,12.3,0,0,0,6.52-1.81,13.1,13.1,0,0,0,4.71-5,14.09,14.09,0,0,0,1.74-6.95,13.81,13.81,0,0,0-1.74-6.85,13.18,13.18,0,0,0-4.71-4.93,12.31,12.31,0,0,0-6.52-1.81A12.79,12.79,0,0,0,1091.92,468.61Z"/><path class="cls-2" d="M1166.33,501.87l-6.79-12.24h-9.85v12.24H1140V459h18.6q8.38,0,13,3.89t4.59,11a16.56,16.56,0,0,1-2.05,8.48,13.17,13.17,0,0,1-6,5.35l9.12,14.14Zm-16.64-20.32h8.93a9.25,9.25,0,0,0,6.21-1.87,6.83,6.83,0,0,0,2.17-5.48,6.57,6.57,0,0,0-2.17-5.35,9.48,9.48,0,0,0-6.21-1.81h-8.93Z"/><path class="cls-2" d="M1192.34,459h35.8v8.2H1215v34.64h-9.67V467.23h-13Z"/><ellipse class="cls-3" cx="297.63" cy="370.27" rx="73.06" ry="83.96"/><path class="cls-3" d="M323.46,294c19.12-32.32,28.65-59.22,93.1-74.61,3-.71,2.53-5.29-.5-5.37-19.87-.55-44.16,2.06-72.58,25.28-32.64,26.67-48.94,46.23-54.13,52.95a1.57,1.57,0,0,0,1,2.55h32A1.38,1.38,0,0,0,323.46,294Z"/><path class="cls-3" d="M370.65,379.3s0,0,0,0l-16.22,76.86a.82.82,0,0,0,0,.1l-6.31,103.85v6a0,0,0,0,1,0,0l-14.33-4a.07.07,0,0,1,0-.06V508.26a.44.44,0,0,0,0-.1l-22.52-79.86a.08.08,0,0,1,0-.08Z"/><path class="cls-3" d="M224.62,379.3s0,0,0,0l16.22,76.86a.82.82,0,0,1,0,.1l6.31,103.85v6a0,0,0,0,0,0,0l14.33-4a.07.07,0,0,0,0-.06V508.26a.44.44,0,0,1,0-.1l22.52-79.86a.08.08,0,0,0,0-.08Z"/><ellipse class="cls-3" cx="339.75" cy="567.7" rx="7.71" ry="9"/><ellipse class="cls-3" cx="345.79" cy="568.18" rx="9.74" ry="7.58"/><ellipse class="cls-3" cx="333.71" cy="568.18" rx="9.74" ry="7.58"/><ellipse class="cls-3" cx="254.07" cy="567.7" rx="7.71" ry="9"/><ellipse class="cls-3" cx="260.11" cy="568.18" rx="9.74" ry="7.58"/><ellipse class="cls-3" cx="248.03" cy="568.18" rx="9.74" ry="7.58"/><path class="cls-4" d="M14.15,330.39c20.64,18,43.48,28.56,69.62,29C34.63,332.49,12.39,284.59,0,228.31c33.32,42.14,73.11,63.14,120.46,53.57-12.74-2.27-27.78-4-42.43-7.83-15-3.94-28.25-12.55-38.71-24.06,12.34,5.31,25.05,12.48,38.44,16.21,28.26,7.87,55.35,1.75,81.15-10.61,4.48-2.15,8.12-7.44,11.05-12.15,12.72-20.42,24.82-41.33,37.54-61.75,16.73-26.86,36-50.71,64.51-62.37,14.92-6.09,25.43-3.48,42.38-3a6.13,6.13,0,0,1,4.31,10.28l-.07.08c-5.31,5.75-5.73,6.58-11.14,12.21-1.38,1.44-3,3-4.75,3.51-16.51,5-26.59,17.89-32.77,34.6-7.13,19.29-12.65,39.38-19.7,58.72-6.73,18.44-14.52,36.37-21.21,56.22l36.39-29.14c-2,3.92-3.19,6.69-4.7,9.21-27.18,45.3-64.47,76.18-111.18,91.43-36.43,11.9-73.7,13.09-109.38-8.21-9.85-5.88-18.5-14.43-27.7-21.75Z"/><path class="cls-4" d="M232.5,439.21c1.79,1.84,3.76,3.53,5.41,5.49,2,2.41,3.85,5,5.73,7.56a2.05,2.05,0,0,1,.41,1.25c-.19,2.45-.45,4.89-.67,7.34a1.45,1.45,0,0,0,.12.81c1.57,2.74,1.52,5.71,1.13,8.69s.74,5.35,1.67,7.89a4.78,4.78,0,0,0,1.64,2.15,45.34,45.34,0,0,0,5.83,3.6,14.31,14.31,0,0,0,3.73.74,2,2,0,0,1-.06.45c-1.31,3.36-2.67,6.71-3.92,10.09-2.58,7-5,13.95-5.09,21.53a48.6,48.6,0,0,0,1,11.82c.55,2.31,1.36,4.56,1.88,6.88,1.09,4.87,3.15,9.37,5.15,13.9,2.93,6.63,6,13.21,8.58,20a66.44,66.44,0,0,1,3.87,19.76,71.83,71.83,0,0,1-.49,11.63c-.23,2.31-.32,4.79-2,6.71a2,2,0,0,0-.26.9c-.77,3.86-2.51,5.23-5.29,8-.39.39-.79.76-1.19,1.13l30.82,1a84.05,84.05,0,0,0,4.25-9.25,55.08,55.08,0,0,0,4.26-19.16c0-2.54.18-5.07.36-7.6a102.45,102.45,0,0,0-.8-21.69,29,29,0,0,1-.15-9.11c.8-.06,1,.25,1,1,0,2.09,0,4.19.07,6.28.11,1.86.44,3.7.61,5.55.25,2.68.62,5.36.63,8,0,4.16-.22,8.32-.36,12.49-.23,6.67-.61,13.3-2.84,19.7a23.16,23.16,0,0,0-1.25,5.88,44.77,44.77,0,0,0,.14,7.46c0,.47.1-.07.17.38l26.79-.25c-.69-2-1.24-2.78-1.84-4.79-.11-.37-.33-.8-.4-1.06-.12-.5-.18-.93-.31-1.5a6.45,6.45,0,0,1-.12-.87,56.23,56.23,0,0,1,1.85-19.89,115.39,115.39,0,0,1,5-13.86c1.62-3.79,4-7.13,6.13-10.58,3.4-5.45,7.06-10.74,10.32-16.27a113.85,113.85,0,0,0,5.35-11,38,38,0,0,0,2.23-6.14c1.68-6.54,2.5-13.19,1.37-19.91-.83-5-2-9.86-2.81-14.83a56.59,56.59,0,0,0-8.17-21,74.4,74.4,0,0,0-10.2-12.36,53.07,53.07,0,0,0-12.06-9.41,1.91,1.91,0,0,1-.84-1.38,43.85,43.85,0,0,1,2.35-16.15c1.39-3.69,2.24-7.73,5.41-10.53,1.18-1,2.09-2.33,3.31-3.37a56,56,0,0,0,5.45-5.73,19.19,19.19,0,0,0,4.33-7.14c.79-2.58,2.12-5,3-7.56,1.24-3.56,1.22-7.32,1.53-11a18.32,18.32,0,0,0-2.37-10.74c-1.42-2.52-2.9-5-4.4-7.48-2.61-4.3-4.45-8.86-4.46-14,0-2.41.24-4.82.44-7.22a28.83,28.83,0,0,1,2.53-9.82c.44-1,.8-2,1.19-3s.73-2.15,1.24-3.16A29.39,29.39,0,0,1,340,334a11.82,11.82,0,0,1,.68-1.28c.37-.44,1-.69,1.29-1.15,1.35-1.91,2.65-3.85,3.94-5.8a3.14,3.14,0,0,0,.24-.85,4.3,4.3,0,0,1,.25-.78c.31-.61.87-1.17,1-1.79a43,43,0,0,0,.45-6.26,4.56,4.56,0,0,0-5.07-4.23,7.18,7.18,0,0,0-5.9,4.6c-.8,1.79-1.5,3.62-2.33,5.4-1.47,3.14-4.16,5.22-6.74,7.34a30.13,30.13,0,0,0-7.6,8.66,35.84,35.84,0,0,0-3.72,9.82,30.82,30.82,0,0,0-.11,13.75c.77,3.23,2.32,6.26,3.34,9.44.75,2.36,2,4.54,2.15,7.12.15,3.17,1,6.32.46,9.52a37.68,37.68,0,0,1-1.59,7.41c-1.5,3.79-3,7.69-6.22,10.51a2.08,2.08,0,0,0-.37.47c-1,1.61-2,3.21-3,4.83-1.88,3.07-3.81,6.12-5.58,9.26a49.35,49.35,0,0,0-3.2,6.63c-2,5.25-4,10.52-5.63,15.89-.79,2.58-.78,5.4-1.17,8.11-.05.35-.22.89-.47,1-1.35.52-2.74.93-4.27,1.42,0-4.12.13-8,.11-11.94a27.28,27.28,0,0,0-.48-3.26,2.12,2.12,0,0,1,.06-1.2c2.79-4.93,5.63-9.84,8.45-14.75a5.81,5.81,0,0,0,.88-1.66c.08-.48-.2-1.45-.44-1.48a13.2,13.2,0,0,0-3.29-.06,11.59,11.59,0,0,0-2.09.65,6.37,6.37,0,0,0-1,.24c-1.82.92-3.67,1.81-5.43,2.85-1.45.86-2.6,2.09-4.29,2.74-1.92.74-3.57,1.92-5.84,1.55a49,49,0,0,0-6.88-.54,38.46,38.46,0,0,0-6.75.25,14.92,14.92,0,0,0-12.14,9.46,1.09,1.09,0,0,1-1.36.77c-3.44-.46-7-.14-10.35-1.28-2.86-1-5.8-1.7-8.69-2.54-.85-.25-1.67-.35-2.27.46a1.65,1.65,0,0,0,.17,2.19C230.18,436.77,231.33,438,232.5,439.21Z"/><path class="cls-5" d="M371.24,221.67"/><path class="cls-5" d="M359.24,231"/><path class="cls-4" d="M1017.46,134.15c0,20.19-49.24,75.1-72.26,75.1-15.23,0-67.3-8.15-128.94-14.88-45,44.63-127.88,197.31-127.88,277,0,14.52.35,22,4.61,26.21a2.71,2.71,0,0,1,.71,1.77c0,3.54-5.31,9.21-8.5,9.21-17.71,0-47.11-56-47.11-84.31,4.6-68.72,57-177.12,95.64-237.34-22-1.42-43.22-2.48-63.76-2.48-74,0-133.9,11.34-133.9,50.3,0,22.67,23,30.82,50.66,30.82,41.09,0,91.75-17.71,91.75-31.53,0-1.42.71-1.77,1.42-1.77,1.06,0,2.83,1.42,2.83,3.9,0,3.9-15.94,58.45-102,58.45-39.67,0-64.12-53.49-64.12-87.85,0-10.63,2.48-19.48,7.44-24.44,25.15-25.15,82.89-33.65,137.8-33.65h99.89c15.23-14.52,21.61-14.52,33.65-14.52,5.31,0,22,5.67,37.55,13.82,84-1.77,166.84-5.67,176.76-15.94,4.25-4.25,1.42-6.38,3.9-6.38C1016.4,125.65,1017.46,128.13,1017.46,134.15Z"/><path class="cls-4" d="M906.94,288.24c-42.51-5.67-89.27,90-89.27,113,0,2.13.71,3.19,1.77,3.19,5.67,0,62.34-95.64,94.93-105.92,15.94,1.77,39,22.32,39,28.34,0,9.92-18.07,43.92-18.07,63.05,0,10.27,3.54,12.75,5.67,12.75,9.92,0,39.67-56,39.67-56,2.83,0,7.08,5,6,7.79-1.42,3.19-33.3,66.24-49.59,66.24-24.8,0-59.87-13.46-59.87-42.15,0-14.88,7.79-38.26,7.79-38.26-5,0-42.15,56-57.74,71.2-5,5-9.21,7.79-12.4,7.79-8.15,0-48.53-10.63-48.53-39,0-43.57,60.93-127.52,90.68-127.52,21.61,0,50.3,19.84,50.3,32.59C907.3,286.47,906.94,287.53,906.94,288.24Zm0,1.06c-.71.71-1.42.71-2.83,0Z"/><path class="cls-4" d="M1021,409.74c9.92,0,24.8-20.19,48.88-65.53a2.56,2.56,0,0,1,2.13-1.42c2.13,0,4.25,3.54,4.25,7.08a8.08,8.08,0,0,1-1.06,3.9c-9.21,17.71-36.13,69.78-59.51,69.78-18.42,0-48.53-23-48.53-47.11,0-39.32,48.88-116.54,48.88-123.27,0-5.31,3.54-7.79,5.67-7.79,15.59,0,48.18,18.07,48.18,28.69,0,10.27-52.07,91-52.07,131.07C1017.82,405.49,1018.18,409.74,1021,409.74Zm74.39-194.12c0,5.67-3.9,8.86-6.38,11a5.86,5.86,0,0,0-1.77,4.6c0,2.13.71,4.25.71,5.31,0,3.19-1.77,6.38-9.92,6.38-22,0-40.74-20.55-40.74-33.65,0-9.56,5.31-26.21,14.52-26.21C1079.46,183,1095.4,210,1095.4,215.62Z"/><path class="cls-4" d="M1179.7,338.54c.71-1.06.71-1.42,1.42-1.42,1.77,0,4.61,4.25,4.61,7.79a5.12,5.12,0,0,1-.71,2.48c-3.9,8.5-41.09,76.16-84.66,76.16-18.07,0-45-20.9-45-46.4,0-50.3,81.83-203.33,108.4-203.33,18.42,0,45.7,17.71,45.7,37.9,0,25.5-62.34,123.63-93.87,144.88-5.67,14.17-12.4,29-12.4,43.57,0,6.38,2.48,9.21,7.08,9.21,3.9,0,9.92-2.48,16.29-6C1142.86,393.8,1161.64,371.84,1179.7,338.54ZM1123,339.6c29.75-30.46,78.29-110.17,78.29-124.69,0-1.42-.35-2.83-2.12-2.83C1194.58,212.08,1150.3,280.45,1123,339.6Z"/><path class="cls-4" d="M1218,351.29c-3.9-11-11-23.73-16.29-36.84-11,21.61-20.54,38.61-22.67,43.22a4.45,4.45,0,0,1-3.54,2.48c-1.77,0-3.54-2.13-3.54-5.31a13.62,13.62,0,0,1,1.77-6.73c5-9.21,15.23-26.92,23.73-46.05a53.92,53.92,0,0,1-2.12-14.88c0-26.21,21.61-60.57,43.57-60.57s38.61,29.76,38.61,31.88-2.12,7.44-6,7.44c-4.25,0-34.71,4.25-34.71,37.55,0,11.69,7.44,22.67,14.88,33.3,11.33-3.54,22.67-5.67,32.94-5.67,20.9,0,33.3,6.38,33.3,10.63,0,4.6-8.86,12-12.4,12-1.77,0-2.12-1.42-2.12-3.54s-2.13-11-18.77-11a104.64,104.64,0,0,0-28,3.9c6.73,9.56,12.4,19.48,12.4,29.75,0,46.05-46.05,53.49-56,53.49s-49.59-6-49.59-20.9C1163.41,390.26,1187.85,367.59,1218,351.29Zm2.13,8.15c-25.15,15.23-42.15,35.07-42.15,41.8,0,1.77.71,2.48,2.83,2.48,17,0,40-20.19,40-39.32A27.78,27.78,0,0,0,1220.08,359.44Z"/></svg>